<svg xmlns="http://www.w3.org/2000/svg" viewBox="0 0 868.895 667.40162">
  <defs>
    <style>
      .a {
        fill: #36f;
      }

      .b {
        fill: #1e1f21;
      }

      .c {
        fill: #f33;
      }
    </style>
  </defs>
  <title>doodles</title>
  <g>
    <rect class="a" x="720.9844" y="20.58562" width="24.84039" height="24.83978" transform="translate(301.48045 626.64951) rotate(-56.53782)"/>
    <path class="b" d="M736.02049,46.09663L708.27187,27.74973,726.61322,0,754.363,18.34579ZM719.94535,25.36938l13.69257,9.05155,9.05155-13.69479-13.69368-9.05155Z"/>
  </g>
  <path class="b" d="M300.937,275.54708l-46.87789-19.762,66.63992-27.11475Zm-24.86294-19.62462,20.37263,8.58944,8.58944-20.37374Z"/>
  <path class="b" d="M795.4466,396.36169l38.31393-57.95406,9.82062,48.13455Zm34.125-36.3425L813.69154,384.041l19.95153-4.07032Z"/>
  <path class="c" d="M187.07815,434.49713a28.21708,28.21708,0,1,1,22.00542-33.28955,28.21709,28.21709,0,0,1-22.00542,33.28955"/>
  <path class="b" d="M178.9954,432.26019a32.47519,32.47519,0,1,1,6.55151-.6649A32.729,32.729,0,0,1,178.9954,432.26019Zm0.07425-56.44584a24.006,24.006,0,1,0,23.5143,19.20683A24.07513,24.07513,0,0,0,179.06965,375.81434Z"/>
  <path class="b" d="M32.01519,289.33218c-4.72968-6.68338-3.13059-12.90909-1.84621-17.91249,1.22121-4.7596,1.79745-7.61536-.56517-10.95206s-5.24719-3.74119-10.142-4.16894c-5.14635-.451-11.55158-1.01065-16.28237-7.69515-4.73079-6.679-3.13059-12.90466-1.844-17.90806,1.22231-4.75627,1.79967-7.60982-.55963-10.941l6.8751-4.86931c4.72968,6.68006,3.12948,12.90577,1.844,17.90806-1.22342,4.75627-1.79967,7.60982.55963,10.94209,2.36262,3.33781,5.24719,3.7423,10.142,4.17005,5.14635,0.44992,11.55048,1.01065,16.28237,7.69293,4.733,6.68449,3.13391,12.91242,1.84954,17.91581-1.22231,4.7596-1.79856,7.61425.56406,10.951Z"/>
  <path class="b" d="M847.74886,634.10129l-8.30242-1.43619c1.15693-6.69,5.85558-9.45492,9.28426-11.474,3.22035-1.895,4.78952-2.92668,5.25938-5.65278,0.4743-2.72721-.656-4.22657-3.05191-7.0923-2.55323-3.05412-6.0484-7.23747-4.89147-13.92861,1.15915-6.68893,5.8578-9.4516,9.29091-11.46958,3.21813-1.89165,4.78509-2.92225,5.255-5.64281l8.30242,1.43619c-1.15693,6.68782-5.8578,9.4516-9.2887,11.46847-3.21813,1.89276-4.7873,2.92336-5.25717,5.645-0.47208,2.72389.65825,4.22324,3.05412,7.089,2.55323,3.05523,6.0484,7.23969,4.88925,13.93083-1.15693,6.69114-5.85558,9.45714-9.28648,11.47623C849.7879,630.3457,848.21873,631.3774,847.74886,634.10129Z"/>
  <rect class="b" x="395.42445" y="455.10322" width="8.42272" height="37.08687" transform="translate(-215.86001 545.86041) rotate(-56.53595)"/>
  <rect class="b" x="434.16699" y="14.65274" width="37.08655" height="8.42474" transform="translate(82.93258 280.71801) rotate(-37.6899)"/>
  <rect class="b" x="45.83465" y="587.20987" width="8.42474" height="37.08655" transform="translate(-115.52372 20.92162) rotate(-11.08424)"/>
  <path class="b" d="M298.79094,667.40162l-8.09187-39.66147,61.14449,8.18274Zm2.52885-29.74112,3.35776,16.45192,22.00608-13.05648Z"/>
  <path class="c" d="M555.98587,280.64439l13.27451-20.07855a9.62977,9.62977,0,0,1,13.34713-2.72347l20.08084,13.2723a9.63688,9.63688,0,0,1,2.72347,13.34938l-13.27455,20.07862a9.63261,9.63261,0,0,1-13.34713,2.7234l-20.08084-13.27451a9.63219,9.63219,0,0,1-2.72344-13.34717"/>
  <path class="b" d="M584.08045,304.42271a13.75079,13.75079,0,0,1-7.61314-2.29281l-20.08007-13.27257a13.84331,13.84331,0,0,1-3.91406-19.18467l13.27368-20.07786a13.83911,13.83911,0,0,1,19.18246-3.91517l20.08229,13.27257a13.867,13.867,0,0,1,3.91628,19.18467L595.64977,298.217A13.84269,13.84269,0,0,1,584.08045,304.42271Zm-6.77536-52.616a5.47839,5.47839,0,0,0-1.09487.11082,5.37681,5.37681,0,0,0-3.43533,2.32162L559.499,274.31922a5.419,5.419,0,0,0,1.53371,7.51008L581.11277,295.103a5.42376,5.42376,0,0,0,7.51119-1.5326l13.2759-20.07786a5.43316,5.43316,0,0,0-1.53371-7.51341l-20.08229-13.27147A5.38259,5.38259,0,0,0,577.30509,251.80671Z"/>
  <rect class="b" x="561.19325" y="235.66217" width="8.42457" height="20.91482" transform="translate(48.2905 582.05156) rotate(-56.53222)"/>
  <rect class="b" x="551.28577" y="249.36526" width="8.42488" height="17.75876" transform="translate(33.74779 579.25096) rotate(-56.53503)"/>
  <rect class="b" x="542.67459" y="259.92221" width="8.42457" height="22.69686" transform="translate(19.01792 577.90949) rotate(-56.53494)"/>
  <rect class="b" x="610.46306" y="266.20092" width="8.42361" height="22.68284" transform="translate(46.01019 640.13775) rotate(-56.82311)"/>
  <rect class="b" x="601.35451" y="282.46344" width="8.42457" height="17.76014" transform="translate(28.60721 635.88644) rotate(-56.537)"/>
  <rect class="b" x="592.70745" y="292.74474" width="8.42457" height="23.19969" transform="translate(13.85524 634.45759) rotate(-56.53234)"/>
  <path class="a" d="M654.15842,556.10289a21.72254,21.72254,0,0,0-38.30978-1.49783,21.70935,21.70935,0,1,0,7.53713,29.54255,21.71253,21.71253,0,0,0,30.77265-28.04471"/>
  <path class="b" d="M630.48192,575.62472a4.302,4.302,0,1,1-5.23128-3.10925,4.30282,4.30282,0,0,1,5.23128,3.10925"/>
  <path class="b" d="M639.90892,566.5659a4.302,4.302,0,1,1-5.23128-3.10925,4.30283,4.30283,0,0,1,5.23128,3.10925"/>
  <path class="b" d="M600.98511,605.75315a25.93619,25.93619,0,1,1,9.82062-49.92758,25.9379,25.9379,0,0,1,43.47912,5.061h0a25.92384,25.92384,0,0,1-33.18642,35.27533A26.023,26.023,0,0,1,600.98511,605.75315Zm-0.03989-43.45364a17.50794,17.50794,0,1,0,15.1343,26.34568l2.151-3.69354,3.6614,2.20415a17.49976,17.49976,0,0,0,24.80864-22.60117h0a17.50987,17.50987,0,0,0-30.8781-1.21012l-2.15207,3.69243-3.6614-2.20526A17.53784,17.53784,0,0,0,600.94521,562.29951Z"/>
  <polygon class="b" points="608.117 573.411 602.704 574.789 601.325 569.376 594.107 571.212 595.485 576.627 590.07 578.005 591.908 585.222 597.321 583.844 598.701 589.259 605.918 587.421 604.54 582.008 609.956 580.63 608.117 573.411"/>
  <path class="c" d="M208.30645,64.06322L191.26,88.92374l-30.7749-21.10216,17.04647-24.86045a18.6574,18.6574,0,1,1,30.77492,21.10209"/>
  <path class="b" d="M185.61473,89.252L147.89145,63.384,167.321,35.05024a22.87,22.87,0,1,1,37.72328,25.86695Zm-26.0099-28.05115,23.8268,16.33778L198.09607,56.152a14.44475,14.44475,0,1,0-23.8268-16.33667Z"/>
  <rect class="b" x="120.96061" y="78.74999" width="69.54454" height="8.42523" transform="translate(-0.76519 164.47259) rotate(-55.55746)"/>
  <rect class="b" x="110.33107" y="94.71542" width="94.04501" height="8.42523" transform="translate(-13.22771 172.74489) rotate(-55.55746)"/>
</svg>
