<?xml version="1.0" encoding="utf-8"?>
<!DOCTYPE svg PUBLIC "-//W3C//DTD SVG 1.1//EN" "http://www.w3.org/Graphics/SVG/1.1/DTD/svg11.dtd">
<svg version="1.1" id="Your_Icon" xmlns="http://www.w3.org/2000/svg" xmlns:xlink="http://www.w3.org/1999/xlink" x="0px" y="0px" width="100px" height="30px" viewBox="0 0 100 30" enable-background="new 0 0 100 30" xml:space="preserve">
    <g>
        <path fill="#202226" d="M99.9,1.9C89.2-0.6,71.7-0.8,60.9,2.4C57.3,3.4,54.5,4.7,50,4.7c-4.5,0-7.3-1.3-10.9-2.4c-10.7-3.1-28.2-3-38.9-0.5c-0.2,1.7-0.3,3.6,0.5,5.2c0.6,1.2,1.7,0.6,2.4,1.2c1.2,1.1,1.9,6.7,2.3,8c0.7,2.4,1.2,5,2.4,7.3c0.5,1.1,1.2,2.1,2.2,2.9c2.5,2,7,3.1,10.8,3.4c13.7,1,18.9-3.4,22.8-11.5c1.6-3.3,2.8-7.6,5.9-7.9c0.2,0,0.4,0,0.6,0c0.2,0,0.4,0,0.6,0c3.1,0.3,4.3,4.5,5.9,7.9c3.9,8.1,9.1,12.5,22.8,11.5c3.8-0.3,8.3-1.4,10.8-3.4c1-0.8,1.7-1.8,2.2-2.9c1.1-2.3,1.7-4.8,2.4-7.3c0.4-1.3,1.1-6.9,2.3-8c0.7-0.7,1.9,0,2.4-1.2C100.1,5.5,100.1,3.6,99.9,1.9z"/>
        <path fill="#3366FF" d="M41.4,13.9c-0.5,4.8-4.6,11.3-9.2,12.8c-5.9,2-18.6,1.2-21.6-2.9C8.2,20.5,5.4,7.7,9.5,4.4c1-0.8,2.4-0.8,3.8-0.9c5.4-0.6,11.4-0.1,16,0.5C35.1,4.7,42.3,6,41.4,13.9z"/>
        <path fill="#FF3333" d="M89.4,23.8c-3,4.1-15.7,4.9-21.6,2.9c-4.6-1.6-8.6-8-9.2-12.8C57.7,6,64.9,4.7,70.8,3.9c4.6-0.6,10.5-1.1,16-0.5c1.4,0.2,2.8,0.1,3.8,0.9C94.6,7.7,91.8,20.5,89.4,23.8z"/>
    </g>
</svg>
