<?xml version="1.0" encoding="utf-8"?>
<!-- Generator: Adobe Illustrator 19.2.1, SVG Export Plug-In . SVG Version: 6.00 Build 0)  -->
<svg version="1.1" id="Layer_1" xmlns="http://www.w3.org/2000/svg" xmlns:xlink="http://www.w3.org/1999/xlink" x="0px" y="0px"
	 viewBox="0 0 384 384" style="enable-background:new 0 0 384 384;" xml:space="preserve">
<path d="M349.1,174.5V69.8h-35v-35h-34.9V0H104.7v34.9H69.8v35h-35v104.7H0v174.6V384h34.9v-34.9h35v-35h34.9V384h34.9v-34.9h69.8
	V384h34.9v-34.9h34.9v-35h34.9v35h35V384H384V174.5H349.1z M314.2,139.6h-34.9v34.9v34.9h34.9v34.9h-34.9h-34.9v-34.9h-34.9v-34.9
	v-34.9h34.9v-34.9h34.9h34.9V139.6z M69.8,139.6h34.9v-34.9h34.9h34.9v34.9h-34.9v34.9v34.9h34.9v34.9h-34.9h-34.9v-34.9H69.8v-34.9
	V139.6z"/>
</svg>
