<svg class="c-icon c-icon--beer" xmlns="http://www.w3.org/2000/svg" viewBox="0 0 260 300">
  <title>pint</title>
  <g>
    <path class="c-icon__foam" d="M240,120V100H200V80H20V280H40v20H180V280h20V240h40V220h20V120H240Zm0,80H200V140h40v60Z"/>
    <polygon class="c-icon__glass" points="200 40 200 20 160 20 160 0 60 0 60 20 20 20 20 40 0 40 0 140 20 140 20 80 40 80 40 100 120 100 120 120 140 120 140 180 160 180 160 140 180 140 180 100 180 100 180 80 200 80 200 100 220 100 220 40 200 40"/>
  </g>
</svg>
