<svg xmlns="http://www.w3.org/2000/svg" xmlns:xlink="http://www.w3.org/1999/xlink" version="1.1" x="0px" y="0px" viewBox="0 0 100 125" enable-background="new 0 0 100 100" xml:space="preserve"><polygon fill="none" points="62.28,29.54 62.28,37.72 54.09,37.72 54.09,45.91 54.09,54.09 62.28,54.09 62.28,62.28 70.46,62.28   78.63,62.28 78.63,54.09 70.46,54.09 70.46,45.91 70.46,37.72 78.63,37.72 78.63,29.54 70.46,29.54 "/><polygon fill="none" points="29.54,54.09 29.54,62.28 37.72,62.28 45.91,62.28 45.91,54.09 37.72,54.09 37.72,45.91 37.72,37.72   45.91,37.72 45.91,29.54 37.72,29.54 29.54,29.54 29.54,37.72 21.37,37.72 21.37,45.91 21.37,54.09 "/><path d="M86.83,45.91V21.37h-8.2v-8.2h-8.17V5H29.54v8.17h-8.17v8.2h-8.2v24.54H5v40.92V95h8.17v-8.17h8.2v-8.2h8.17V95h8.18v-8.17  h16.37V95h8.19v-8.17h8.18v-8.2h8.17v8.2h8.2V95H95V45.91H86.83z M78.63,37.72h-8.17v8.19v8.18h8.17v8.19h-8.17h-8.18v-8.19h-8.19  v-8.18v-8.19h8.19v-8.18h8.18h8.17V37.72z M21.37,37.72h8.17v-8.18h8.18h8.19v8.18h-8.19v8.19v8.18h8.19v8.19h-8.19h-8.18v-8.19  h-8.17v-8.18V37.72z"/><text x="0" y="115" fill="#000000" font-size="5px" font-weight="bold" font-family="'Helvetica Neue', Helvetica, Arial-Unicode, Arial, Sans-serif">Created by Elizabeth</text><text x="0" y="120" fill="#000000" font-size="5px" font-weight="bold" font-family="'Helvetica Neue', Helvetica, Arial-Unicode, Arial, Sans-serif">from the Noun Project</text></svg>